<svg width="9" height="12" viewBox="0 0 9 12" fill="none" xmlns="http://www.w3.org/2000/svg">
<path fill-rule="evenodd" clip-rule="evenodd" d="M3.69525 0.195262C3.9556 -0.0650874 4.37771 -0.0650874 4.63806 0.195262L7.97139 3.5286C8.23174 3.78894 8.23174 4.21106 7.97139 4.4714C7.71105 4.73175 7.28893 4.73175 7.02859 4.4714L4.16666 1.60948L1.30473 4.4714C1.04438 4.73175 0.622268 4.73175 0.361919 4.4714C0.101569 4.21106 0.101569 3.78894 0.361919 3.5286L3.69525 0.195262ZM0.361919 7.5286C0.622268 7.26825 1.04438 7.26825 1.30473 7.5286L4.16666 10.3905L7.02859 7.5286C7.28893 7.26825 7.71105 7.26825 7.97139 7.5286C8.23174 7.78895 8.23174 8.21106 7.97139 8.47141L4.63806 11.8047C4.37771 12.0651 3.9556 12.0651 3.69525 11.8047L0.361919 8.47141C0.101569 8.21106 0.101569 7.78895 0.361919 7.5286Z" fill="#FAFAFA"/>
</svg>
