<svg width="12" height="12" viewBox="0 0 12 12" fill="none" xmlns="http://www.w3.org/2000/svg">
<path fill-rule="evenodd" clip-rule="evenodd" d="M5.25107 0.700344C5.47884 0.569092 5.73711 0.5 6 0.5C6.2629 0.5 6.52118 0.569098 6.74896 0.70036C6.7493 0.700561 6.74965 0.700761 6.75 0.700962L10.25 2.70096C10.4778 2.83248 10.667 3.0216 10.7987 3.24933C10.9303 3.47707 10.9997 3.73542 11 3.99846V7.99949C10.9997 8.26253 10.9303 8.52088 10.7987 8.74862C10.667 8.97635 10.4778 9.16547 10.25 9.29699L10.2481 9.2981L6.75 11.297C6.7497 11.2972 6.7494 11.2973 6.7491 11.2975C6.53302 11.4221 6.28948 11.4907 6.04058 11.4974C6.02719 11.4985 6.01366 11.499 6 11.499C5.98634 11.499 5.97281 11.4985 5.95942 11.4974C5.71053 11.4907 5.467 11.4221 5.25093 11.2975C5.25062 11.2973 5.25031 11.2972 5.25 11.297L1.75193 9.2981L1.75 9.29699C1.5222 9.16547 1.33299 8.97635 1.20135 8.74862C1.06971 8.52088 1.00027 8.26253 1 7.99949V3.99846C1.00027 3.73542 1.06971 3.47707 1.20135 3.24933C1.33299 3.0216 1.5222 2.83248 1.75 2.70096L1.75193 2.69985L5.25107 0.700344ZM6.5 10.2881L6.50002 6.28836L10 4.27688V7.99846C9.99991 8.08614 9.97676 8.17226 9.93289 8.24817C9.88916 8.32382 9.82637 8.38668 9.75079 8.4305C9.75053 8.43066 9.75026 8.43081 9.75 8.43096L6.5 10.2881ZM9.48841 3.41751L6.25 1.56699C6.17399 1.52311 6.08777 1.5 6 1.5C5.91223 1.5 5.82601 1.5231 5.75 1.56699L5.74807 1.5681L2.51162 3.4175L6.00002 5.42233L9.48841 3.41751ZM5.50002 6.28836L5.5 10.2881L2.25 8.43096C2.24974 8.43081 2.24947 8.43066 2.24921 8.43051C2.17363 8.38668 2.11084 8.32382 2.06711 8.24817C2.02327 8.17232 2.00013 8.08628 2 7.99868V4.27685L5.50002 6.28836Z" fill="#A3A3A3"/>
</svg>
