<svg width="14" height="14" viewBox="0 0 14 14" fill="none" xmlns="http://www.w3.org/2000/svg">
<path fill-rule="evenodd" clip-rule="evenodd" d="M6.33337 1.66732C3.75605 1.66732 1.66671 3.75666 1.66671 6.33398C1.66671 8.91131 3.75605 11.0007 6.33337 11.0007C8.9107 11.0007 11 8.91131 11 6.33398C11 3.75666 8.9107 1.66732 6.33337 1.66732ZM0.333374 6.33398C0.333374 3.02028 3.01967 0.333984 6.33337 0.333984C9.64708 0.333984 12.3334 3.02028 12.3334 6.33398C12.3334 7.75062 11.8424 9.05258 11.0214 10.079L13.4716 12.5292C13.7319 12.7896 13.7319 13.2117 13.4716 13.472C13.2112 13.7324 12.7891 13.7324 12.5288 13.472L10.0786 11.0218C9.05213 11.843 7.75009 12.334 6.33337 12.334C3.01967 12.334 0.333374 9.64769 0.333374 6.33398Z" fill="#A3A3A3"/>
</svg>
