<svg width="16" height="16" viewBox="0 0 16 16" fill="none" xmlns="http://www.w3.org/2000/svg">
<path fill-rule="evenodd" clip-rule="evenodd" d="M11.3536 4.64645C11.5488 4.84171 11.5488 5.15829 11.3536 5.35355L5.85355 10.8536C5.65829 11.0488 5.34171 11.0488 5.14645 10.8536L2.64645 8.35355C2.45118 8.15829 2.45118 7.84171 2.64645 7.64645C2.84171 7.45118 3.15829 7.45118 3.35355 7.64645L5.5 9.79289L10.6464 4.64645C10.8417 4.45118 11.1583 4.45118 11.3536 4.64645ZM13.3536 6.64645C13.5488 6.84171 13.5488 7.15829 13.3536 7.35355L9.60355 11.1036C9.40829 11.2988 9.09171 11.2988 8.89645 11.1036L8.14645 10.3536C7.95118 10.1583 7.95118 9.84171 8.14645 9.64645C8.34171 9.45118 8.65829 9.45118 8.85355 9.64645L9.25 10.0429L12.6464 6.64645C12.8417 6.45118 13.1583 6.45118 13.3536 6.64645Z" fill="#53AEA8"/>
</svg>
